<svg width="24" height="24" viewBox="0 0 24 24" fill="none" xmlns="http://www.w3.org/2000/svg">
<path fill-rule="evenodd" clip-rule="evenodd" d="M9.25 2.94067C9.25 2.52646 8.91422 2.19067 8.5 2.19067C8.08579 2.19067 7.75 2.52646 7.75 2.94067V4.43284C7.66882 4.44196 7.58916 4.45175 7.51098 4.46226C6.33856 4.61989 5.38961 4.95201 4.64125 5.70037C3.89288 6.44873 3.56076 7.39768 3.40314 8.5701C3.24998 9.70931 3.24999 11.1649 3.25 13.0027V13.0027L3.25 13.0591L3.25 13.1155V13.1156C3.24999 14.9533 3.24998 16.4089 3.40314 17.5482C3.56076 18.7206 3.89288 19.6695 4.64125 20.4179C5.38961 21.1662 6.33856 21.4984 7.51098 21.656C8.65019 21.8092 10.1058 21.8091 11.9435 21.8091H11.9436H12H12.0564H12.0565C13.8942 21.8091 15.3498 21.8092 16.489 21.656C17.6614 21.4984 18.6104 21.1662 19.3588 20.4179C20.1071 19.6695 20.4392 18.7206 20.5969 17.5482C20.75 16.4089 20.75 14.9533 20.75 13.1156V13.1155V13.0591V13.0027V13.0027C20.75 11.1649 20.75 9.70931 20.5969 8.5701C20.4392 7.39768 20.1071 6.44873 19.3588 5.70037C18.6104 4.95201 17.6614 4.61989 16.489 4.46226C16.4108 4.45175 16.3312 4.44196 16.25 4.43284V2.94067C16.25 2.52646 15.9142 2.19067 15.5 2.19067C15.0858 2.19067 14.75 2.52646 14.75 2.94067V4.3345C13.9602 4.30911 13.066 4.30912 12.0564 4.30913H12.0564L12 4.30913L11.9436 4.30913H11.9436C10.934 4.30912 10.0398 4.30911 9.25 4.3345V2.94067ZM14.75 6.94067V5.8352C13.9832 5.80964 13.0802 5.80913 12 5.80913C10.9198 5.80913 10.0168 5.80964 9.25 5.8352V6.94067C9.25 7.35489 8.91422 7.69067 8.5 7.69067C8.08579 7.69067 7.75 7.35489 7.75 6.94067V5.94371L7.71085 5.94889C6.70476 6.08415 6.12512 6.33782 5.70191 6.76103C5.2787 7.18424 5.02503 7.76389 4.88976 8.76998C4.7516 9.79764 4.75 11.1523 4.75 13.0591C4.75 14.9659 4.7516 16.3206 4.88976 17.3483C5.02503 18.3544 5.2787 18.934 5.70191 19.3572C6.12512 19.7804 6.70476 20.0341 7.71085 20.1694C8.73852 20.3075 10.0932 20.3091 12 20.3091C13.9068 20.3091 15.2615 20.3075 16.2892 20.1694C17.2952 20.0341 17.8749 19.7804 18.2981 19.3572C18.7213 18.934 18.975 18.3544 19.1102 17.3483C19.2484 16.3206 19.25 14.9659 19.25 13.0591C19.25 11.1523 19.2484 9.79764 19.1102 8.76998C18.975 7.76389 18.7213 7.18424 18.2981 6.76103C17.8749 6.33782 17.2952 6.08415 16.2892 5.94889L16.25 5.94371V6.94067C16.25 7.35489 15.9142 7.69067 15.5 7.69067C15.0858 7.69067 14.75 7.35489 14.75 6.94067ZM9.08505 13.2281C9.55311 13.2281 9.93255 12.8487 9.93255 12.3806C9.93255 11.9125 9.55311 11.5331 9.08505 11.5331C8.61698 11.5331 8.23754 11.9125 8.23754 12.3806C8.23754 12.8487 8.61698 13.2281 9.08505 13.2281ZM9.93255 15.7706C9.93255 16.2387 9.55311 16.6181 9.08505 16.6181C8.61698 16.6181 8.23754 16.2387 8.23754 15.7706C8.23754 15.3025 8.61698 14.9231 9.08505 14.9231C9.55311 14.9231 9.93255 15.3025 9.93255 15.7706ZM12.4751 16.6181C12.9431 16.6181 13.3226 16.2387 13.3226 15.7706C13.3226 15.3025 12.9431 14.9231 12.4751 14.9231C12.007 14.9231 11.6276 15.3025 11.6276 15.7706C11.6276 16.2387 12.007 16.6181 12.4751 16.6181ZM13.3226 12.3806C13.3226 12.8487 12.9431 13.2281 12.4751 13.2281C12.007 13.2281 11.6276 12.8487 11.6276 12.3806C11.6276 11.9125 12.007 11.5331 12.4751 11.5331C12.9431 11.5331 13.3226 11.9125 13.3226 12.3806ZM15.8651 13.2281C16.3332 13.2281 16.7126 12.8487 16.7126 12.3806C16.7126 11.9125 16.3332 11.5331 15.8651 11.5331C15.397 11.5331 15.0176 11.9125 15.0176 12.3806C15.0176 12.8487 15.397 13.2281 15.8651 13.2281Z" fill="#757575"/>
</svg>
