<svg width="32" height="32" viewBox="0 0 32 32" fill="none" xmlns="http://www.w3.org/2000/svg">
<path fill-rule="evenodd" clip-rule="evenodd" d="M15.5859 5.33325C21.239 5.33325 25.8374 9.83018 25.8374 15.3587C25.8374 17.967 24.8138 20.3459 23.1389 22.1314L26.4347 25.3478C26.7432 25.6494 26.7442 26.1374 26.4358 26.4391C26.2821 26.5914 26.0789 26.6666 25.8768 26.6666C25.6757 26.6666 25.4736 26.5914 25.3188 26.4411L21.9832 23.1882C20.2285 24.5624 18.0036 25.3851 15.5859 25.3851C9.93266 25.3851 5.33325 20.8872 5.33325 15.3587C5.33325 9.83018 9.93266 5.33325 15.5859 5.33325ZM15.5859 6.87753C10.8033 6.87753 6.91236 10.6816 6.91236 15.3587C6.91236 20.0358 10.8033 23.8409 15.5859 23.8409C20.3674 23.8409 24.2583 20.0358 24.2583 15.3587C24.2583 10.6816 20.3674 6.87753 15.5859 6.87753Z" fill="#D6B87C"/>
</svg>
